<?xml version="1.0" standalone="no"?>
<!DOCTYPE svg PUBLIC "-//W3C//DTD SVG 20010904//EN"
 "http://www.w3.org/TR/2001/REC-SVG-20010904/DTD/svg10.dtd">
<svg version="1.0" xmlns="http://www.w3.org/2000/svg"
 width="500.000000pt" height="500.000000pt" viewBox="0 0 500.000000 500.000000"
 preserveAspectRatio="xMidYMid meet">
<metadata>
Created by potrace 1.14, written by Peter Selinger 2001-2017
</metadata>
<g transform="translate(0.000000,500.000000) scale(0.100000,-0.100000)"
fill="#000000" stroke="none">
<path d="M2385 4609 c-441 -61 -744 -286 -888 -661 l-32 -83 2 -420 2 -421
-157 -12 c-152 -11 -281 -37 -305 -61 -9 -9 -13 -275 -15 -1032 l-2 -1021 27
-50 c59 -109 190 -205 309 -227 32 -6 545 -6 1389 -1 1073 8 1342 12 1352 23
10 10 13 209 13 1019 0 987 0 1007 -20 1061 -48 129 -180 251 -297 275 l-38 8
-2 349 c-3 432 -13 589 -42 669 -96 272 -399 483 -811 567 -121 24 -373 34
-485 18z m505 -122 c249 -59 432 -152 568 -289 123 -124 144 -179 162 -425 12
-170 12 -577 0 -546 -5 11 -23 88 -40 170 -91 428 -242 675 -531 868 -128 86
-281 155 -499 224 l-95 31 165 -5 c130 -3 187 -9 270 -28z m-215 -267 c110
-12 207 -40 300 -87 93 -47 200 -154 243 -243 l32 -65 -3 -405 -2 -405 -25 1
c-14 1 -309 5 -656 9 l-632 8 -4 416 -5 416 24 55 c29 65 106 148 184 195 100
62 271 107 424 114 17 0 71 -4 120 -9z m-1236 -1296 c28 -6 31 -10 31 -43 0
-90 54 -166 137 -192 22 -6 147 -14 298 -18 l260 -7 -261 -2 c-372 -3 -532 17
-659 80 -65 32 -135 109 -135 147 0 16 61 25 276 40 12 0 36 -2 53 -5z m1739
-10 l72 -6 0 -70 c0 -60 3 -72 25 -94 34 -34 102 -64 146 -64 46 0 205 27 240
41 37 15 59 59 59 119 0 101 46 101 150 0 70 -70 118 -146 101 -163 -12 -12
-686 -28 -711 -16 -8 4 -331 10 -718 14 l-703 8 35 24 c49 33 56 50 56 144 l0
82 588 -7 c323 -3 620 -9 660 -12z m-2019 -239 c25 -16 81 -42 125 -56 l81
-27 6 -493 c3 -272 7 -695 8 -940 l1 -447 -41 9 c-90 21 -159 68 -221 153
l-28 39 0 904 c0 728 2 902 13 896 7 -4 32 -21 56 -38z m2249 -105 l572 0 0
-919 0 -918 -77 -6 c-43 -4 -604 -8 -1248 -9 l-1170 -2 -6 199 c-4 110 -7 530
-8 934 l-1 734 683 -6 c375 -4 940 -7 1255 -7z"/>
<path d="M2645 2486 c-130 -32 -232 -104 -283 -201 -24 -45 -27 -61 -27 -151
0 -96 2 -103 37 -176 34 -68 86 -129 132 -155 14 -8 -4 -62 -154 -452 -94
-244 -169 -445 -167 -447 2 -2 247 -3 544 -2 l541 3 -174 444 c-96 245 -174
448 -174 452 0 4 15 17 34 28 105 65 169 301 120 444 -33 97 -134 179 -261
212 -67 18 -100 18 -168 1z"/>
</g>
</svg>
